<svg xmlns="http://www.w3.org/2000/svg" width="60" height="57" viewBox="0 0 60 57"><defs><style>.a{fill:#093959;}</style></defs><g transform="translate(0 -1.5)"><path class="a" d="M59,11.5H53v2h5v4H53v2h5v37H2v-37H7v-2H2v-4H7v-2H1a.945.945,0,0,0-1,1v45a.945.945,0,0,0,1,1H59a.945.945,0,0,0,1-1v-45A.945.945,0,0,0,59,11.5Z"/><path class="a" d="M6,45.5v2H54v-2H51V2.5a.945.945,0,0,0-1-1H10a.945.945,0,0,0-1,1v43Zm37,0H17v-14H43ZM11,3.5h7v3H16v2h6v-2H20v-3h9v3H27v2h6v-2H31v-3h9v3H38v2h6v-2H42v-3h7v42H45v-14h2v-2H13v2h2v14H11Z"/><path class="a" d="M17,20.5h5v6h2v-14a.945.945,0,0,0-1-1H16a.945.945,0,0,0-1,1v14h2Zm5-7v5H17v-5Z"/><path class="a" d="M27,26.5h4.5a2.745,2.745,0,0,0,2.5-3v-9a2.745,2.745,0,0,0-2.5-3H27a.945.945,0,0,0-1,1v13A.945.945,0,0,0,27,26.5Zm1-13h3.5a1.12,1.12,0,0,1,.5,1v9a1.12,1.12,0,0,1-.5,1H28Z"/><path class="a" d="M40,26.5h1a4.012,4.012,0,0,0,4-4v-1a4.012,4.012,0,0,0-4-4H40a1.825,1.825,0,0,1-2-1.6V15a1.825,1.825,0,0,1,2-1.6h1A1.825,1.825,0,0,1,43,15v.5h2V15a3.814,3.814,0,0,0-4-3.6H40A3.814,3.814,0,0,0,36,15v.9a3.814,3.814,0,0,0,4,3.6h1a2.006,2.006,0,0,1,2,2v1a2.006,2.006,0,0,1-2,2H40a2.006,2.006,0,0,1-2-2v-1H36v1A4.012,4.012,0,0,0,40,26.5Z"/></g></svg>