<svg xmlns="http://www.w3.org/2000/svg" width="22" height="22" viewBox="0 0 22 22"><defs><style>.a{fill:#405b70;fill-rule:evenodd;}</style></defs><path class="a" d="M20.7,2a3.3,3.3,0,0,1,3.294,3.106L24,5.3v11a3.3,3.3,0,0,1-3.106,3.294L20.7,19.6H16.85l-2.97,3.96a1.1,1.1,0,0,1-1.677.1l-.083-.1L9.15,19.6H5.3a3.3,3.3,0,0,1-3.294-3.106L2,16.3V5.3A3.3,3.3,0,0,1,5.106,2.006L5.3,2Zm0,2.2H5.3a1.1,1.1,0,0,0-1.093.972L4.2,5.3v11a1.1,1.1,0,0,0,.972,1.093L5.3,17.4H9.7a1.1,1.1,0,0,1,.8.342l.083.1L13,21.066l2.42-3.226a1.1,1.1,0,0,1,.751-.432L16.3,17.4h4.4a1.1,1.1,0,0,0,1.093-.972L21.8,16.3V5.3a1.1,1.1,0,0,0-.972-1.093Zm-2.2,7.7a1.1,1.1,0,0,1,.128,2.193L18.5,14.1H7.5a1.1,1.1,0,0,1-.128-2.193L7.5,11.9Zm0-4.4a1.1,1.1,0,0,1,.128,2.193L18.5,9.7H7.5a1.1,1.1,0,0,1-.128-2.193L7.5,7.5Z" transform="translate(-2 -2)"/></svg>