<svg xmlns="http://www.w3.org/2000/svg" width="20.123" height="20" viewBox="0 0 20.123 20"><defs><style>.a{fill:#405b70;}</style></defs><path class="a" d="M21.127,11.157A10.062,10.062,0,1,0,9.435,21.089l.058.008v-7.03H6.938V11.157H9.493V8.942a3.4,3.4,0,0,1-.019-.374,3.552,3.552,0,0,1,3.551-3.551c.095,0,.189,0,.282.011h-.012a15.518,15.518,0,0,1,2.342.209l-.09-.013V7.7H14.278a1.414,1.414,0,0,0-.191-.013,1.455,1.455,0,0,0-1.455,1.455c0,.046,0,.091.006.136v1.881h2.791l-.446,2.909H12.637V21.1a10.08,10.08,0,0,0,8.49-9.94h0Z" transform="translate(-1.004 -1.097)"/></svg>