<svg xmlns="http://www.w3.org/2000/svg" width="21.685" height="22" viewBox="0 0 21.685 22"><defs><style>.a{fill:#f1468e;}</style></defs><path class="a" d="M16.4,7a6.029,6.029,0,0,0-4.243-1.65A6.649,6.649,0,0,0,5.95,14.107h0A6.725,6.725,0,0,0,15.924,17.6v0a5.09,5.09,0,0,0,2.211-3.342H12.162V10.02H22.6a12.974,12.974,0,0,1,.19,2.234,10.713,10.713,0,0,1-3.294,8.089l0,0A10.629,10.629,0,0,1,12.162,23a11.069,11.069,0,0,1-9.884-6.058,10.952,10.952,0,0,1,0-9.879A11.066,11.066,0,0,1,12.16,1a10.663,10.663,0,0,1,7.4,2.861Z" transform="translate(-1.101 -1)"/></svg>