<svg xmlns="http://www.w3.org/2000/svg" width="24.444" height="22" viewBox="0 0 24.444 22"><defs><style>.a{fill:#405b70;fill-rule:evenodd;}</style></defs><path class="a" d="M9.066,4A7.314,7.314,0,0,0,2,11.524a9.284,9.284,0,0,0,1.6,5.7c1.207,1.753,3.215,3.523,6.329,5.857L14.222,26l4.288-2.914c3.115-2.334,5.122-4.1,6.33-5.857a9.285,9.285,0,0,0,1.6-5.7A7.314,7.314,0,0,0,19.379,4a7.073,7.073,0,0,0-5.156,2.277A7.073,7.073,0,0,0,9.066,4Zm0,2.444a4.874,4.874,0,0,0-4.622,5.079,10.516,10.516,0,0,0,.133,1.8,6.093,6.093,0,0,0,1.041,2.514c.96,1.394,2.675,2.959,5.783,5.288l2.821,2.119,2.821-2.119c3.108-2.329,4.823-3.894,5.783-5.288A6.871,6.871,0,0,0,24,11.524a4.874,4.874,0,0,0-4.621-5.079A5.109,5.109,0,0,0,15.2,8.887a1.222,1.222,0,0,1-1.964,0A5.109,5.109,0,0,0,9.066,6.444Z" transform="translate(-2 -4)"/></svg>