<svg xmlns="http://www.w3.org/2000/svg" width="20" height="20" viewBox="0 0 20 20"><defs><style>.a{fill:#405b70;}</style></defs><path class="a" d="M-124.562,145h-16.875A1.562,1.562,0,0,0-143,146.563v16.875A1.562,1.562,0,0,0-141.437,165h16.875A1.562,1.562,0,0,0-123,163.438V146.563A1.562,1.562,0,0,0-124.562,145ZM-135.8,159.184h-1.949v-6.238h1.949Zm-1.027-7.02h-.016A1.082,1.082,0,0,1-138,151.082,1.093,1.093,0,0,1-136.812,150a1.088,1.088,0,0,1,1.176,1.082A1.087,1.087,0,0,1-136.824,152.164Zm8.824,7.02h-2.211v-3.227c0-.844-.344-1.422-1.105-1.422a1.114,1.114,0,0,0-1.055.766,1.474,1.474,0,0,0-.047.512v3.371h-2.191s.027-5.719,0-6.238h2.191v.98a1.994,1.994,0,0,1,1.945-1.039c1.387,0,2.473.9,2.473,2.828Z" transform="translate(143 -145)"/></svg>