<svg xmlns="http://www.w3.org/2000/svg" width="17.101" height="19" viewBox="0 0 17.101 19"><defs><style>.a{fill:#405b70;}</style></defs><path class="a" d="M3,11.485A9.319,9.319,0,0,0,12.089,21a9.051,9.051,0,0,0,7.893-4.806.95.95,0,0,0-.9-1.4l-.1.008c-.124.009-.25.019-.38.019A7.42,7.42,0,0,1,11.408,7.2a7.959,7.959,0,0,1,.966-3.8.95.95,0,0,0-.9-1.4A9.361,9.361,0,0,0,3,11.485ZM9.975,4.216A9.862,9.862,0,0,0,9.511,7.2a9.394,9.394,0,0,0,7.867,9.426,7.029,7.029,0,0,1-5.289,2.47A7.42,7.42,0,0,1,4.9,11.485,7.592,7.592,0,0,1,9.975,4.216Z" transform="translate(-2.998 -1.998)"/></svg>