<svg xmlns="http://www.w3.org/2000/svg" width="17.844" height="19.129" viewBox="0 0 17.844 19.129"><defs><style>.a{fill:none;stroke:#405b70;stroke-linecap:round;stroke-linejoin:round;stroke-miterlimit:10;stroke-width:2px;}</style></defs><g transform="translate(-2.986 -2)"><path class="a" d="M19.681,15.582l-.725-1.059a10.113,10.113,0,0,1-1.911-5.917,4.942,4.942,0,0,0-3.689-4.672,1.591,1.591,0,0,0-2.9,0A4.942,4.942,0,0,0,6.768,8.606a10.113,10.113,0,0,1-1.911,5.917l-.725,1.059A.717.717,0,0,0,4.792,16.7H19.022A.717.717,0,0,0,19.681,15.582Z" transform="translate(0 0)"/><path class="a" d="M18.852,25A3.426,3.426,0,1,1,12,25" transform="translate(-3.519 -8.296)"/></g></svg>