<svg xmlns="http://www.w3.org/2000/svg" width="18.044" height="22" viewBox="0 0 18.044 22"><defs><style>.a{fill:#405b70;fill-rule:evenodd;}</style></defs><path class="a" d="M10.527,3h4.989c.923,0,1.685,0,2.305.051a4.609,4.609,0,0,1,1.791.456,4.511,4.511,0,0,1,1.924,1.924,4.612,4.612,0,0,1,.456,1.791c.051.62.051,1.382.051,2.305v9.963c0,1.086,0,1.977-.059,2.654a3.221,3.221,0,0,1-.676,1.935,2.82,2.82,0,0,1-2.4.9,3.221,3.221,0,0,1-1.783-1.011c-.491-.47-1.077-1.141-1.792-1.958l-.425-.486c-.49-.56-.81-.925-1.076-1.18a1.326,1.326,0,0,0-.44-.327,1.128,1.128,0,0,0-.736,0,1.326,1.326,0,0,0-.44.327c-.265.255-.586.619-1.076,1.18l-.425.486C10,22.83,9.411,23.5,8.92,23.971a3.22,3.22,0,0,1-1.783,1.011,2.819,2.819,0,0,1-2.4-.9,3.22,3.22,0,0,1-.676-1.935C4,21.467,4,20.577,4,19.491V9.527c0-.923,0-1.685.051-2.305a4.609,4.609,0,0,1,.456-1.791A4.511,4.511,0,0,1,6.432,3.508a4.609,4.609,0,0,1,1.791-.456C8.842,3,9.6,3,10.527,3ZM8.409,5.3a2.431,2.431,0,0,0-.938.21,2.256,2.256,0,0,0-.962.962,2.431,2.431,0,0,0-.21.938c-.043.516-.044,1.184-.044,2.166v9.859c0,1.156,0,1.947.051,2.513a2.267,2.267,0,0,0,.112.63.564.564,0,0,0,.442.166,2.261,2.261,0,0,0,.5-.4c.41-.393.932-.988,1.693-1.858l.42-.48c.45-.514.835-.954,1.18-1.286a3.47,3.47,0,0,1,1.267-.832,3.383,3.383,0,0,1,2.207,0,3.47,3.47,0,0,1,1.267.832c.345.331.73.771,1.18,1.286l.42.48c.761.87,1.283,1.464,1.693,1.858a2.263,2.263,0,0,0,.5.4.564.564,0,0,0,.442-.166,2.265,2.265,0,0,0,.112-.63c.05-.566.051-1.357.051-2.513V9.575c0-.982,0-1.65-.044-2.166a2.43,2.43,0,0,0-.21-.938,2.255,2.255,0,0,0-.962-.962,2.43,2.43,0,0,0-.938-.21c-.516-.043-1.184-.044-2.166-.044H10.575C9.592,5.256,8.925,5.256,8.409,5.3Z" transform="translate(-4 -3)"/></svg>