<svg xmlns="http://www.w3.org/2000/svg" width="15.296" height="15.437" viewBox="0 0 15.296 15.437"><defs><style>.a{fill:#093959;}</style></defs><g transform="translate(-83.438 -80.5)"><path class="a" d="M177.205,186.81c.143-.941.835-3.279.092-4.009-.466-.469-.908-.963-1.35-1.456a3.668,3.668,0,0,1-.623-.9c-.224-.681.668-.7,1.121-.8.619-.191,2.705-.33,2.951-.758.444-.734.876-1.474,1.313-2.212a.522.522,0,0,1,.931-.044c.4.769.855,1.508,1.315,2.244a.691.691,0,0,0,.614.351c1.117.072,2.248.076,3.356.237.984.335-.088,1.151-.453,1.549-.535.553-1.078,1.1-1.608,1.657-.381.4-.367.407-.27.949.171,1.053.4,2.1.528,3.159a.512.512,0,0,1-.809.479c-1.035-.537-2.036-1.139-3.1-1.613a.335.335,0,0,0-.344.037q-1.213.737-2.433,1.462C177.968,187.462,177.192,187.671,177.205,186.81Z" transform="translate(-90.077 -94.015)"/><path class="a" d="M635.523,83.469c.191-.574,1.315-2.841,1.858-2.956a.484.484,0,0,1,.511.713c-.479.714-.912,1.462-1.367,2.192a2.9,2.9,0,0,1-.244.365A.435.435,0,0,1,635.523,83.469Z" transform="translate(-541.419)"/><path class="a" d="M219.281,100.426a.514.514,0,0,1,.809-.412c.611.658,1.069,1.461,1.619,2.174a.453.453,0,0,1-.552.706,22.539,22.539,0,0,1-1.677-2.071A2.326,2.326,0,0,1,219.281,100.426Z" transform="translate(-133.219 -19.039)"/><path class="a" d="M439.93,716.8c.043-.58.082-1.161.132-1.741a.539.539,0,0,1,.645-.512.476.476,0,0,1,.356.467c-.015.685-.033,1.37-.061,2.054a.538.538,0,0,1-1.054.214,3.406,3.406,0,0,1,0-.482Z" transform="translate(-349.605 -621.781)"/><path class="a" d="M83.938,556.662a.506.506,0,0,1-.428-.76,5.338,5.338,0,0,1,1.286-.909c.36-.147,1.014-.605,1.357-.293a.461.461,0,0,1-.137.774q-.562.3-1.111.626A4.069,4.069,0,0,1,83.938,556.662Z" transform="translate(0 -464.934)"/><path class="a" d="M730.312,513.161c-.577-.134-1.226-.356-1.8-.532a.477.477,0,0,1,.016-.949,14.768,14.768,0,0,1,2.1.519A.51.51,0,0,1,730.312,513.161Z" transform="translate(-632.193 -422.849)"/></g></svg>