<svg xmlns="http://www.w3.org/2000/svg" width="37.023" height="39.019" viewBox="0 0 37.023 39.019"><defs><style>.a{fill:#fff;}.b{fill:#7a7473;}.c{fill:#211715;}</style></defs><g transform="translate(0.02 0)"><path class="a" d="M2.755,236.013c.332-.688.615-1.4,1-2.064a10.712,10.712,0,0,1,2.232-3.122,21.361,21.361,0,0,1,4.844-2.978c.563-.262,1.213-.576,1.852-.861a14.586,14.586,0,0,0,16.444,0c.64.287,1.293.6,1.858.864a21.363,21.363,0,0,1,4.844,2.978,10.725,10.725,0,0,1,2.231,3.122c.382.664.666,1.376,1,2.064Z" transform="translate(-2.413 -197.358)"/><path class="a" d="M76.8,67.572a1.351,1.351,0,0,1,1.081-.316,1.276,1.276,0,0,1,.918.61,1.8,1.8,0,0,1,.189.726,5.407,5.407,0,0,1-.551,2.866,3.436,3.436,0,0,1-.889,1.166,2.277,2.277,0,0,1-1.06.478l-.181.028c-.087.325-.185.6-.233.745a11.065,11.065,0,0,1-3.936,4.649c.032.372.082.744.147,1.111.105.6.073,1.142.909,1.444.041.014,1.323.623,2.039.961l.718.319c-.637,1.273-3.322,4.13-8.11,4.13-5.27,0-8.155-2.971-8.537-4.124.256-.126,1.093-.5,1.093-.5.785-.359,1.683-.778,1.714-.79.838-.3.8-.84.911-1.444.072-.416.125-.794.157-1.211a8.355,8.355,0,0,1-2.109-1.848,9.2,9.2,0,0,1-1.752-3.422l-.345-.052a2.277,2.277,0,0,1-1.06-.478,3.438,3.438,0,0,1-.889-1.166,5.407,5.407,0,0,1-.551-2.866,1.8,1.8,0,0,1,.189-.726,1.276,1.276,0,0,1,.918-.61,1.351,1.351,0,0,1,1.081.316s.021-7.128,9.144-7.128C77.17,60.444,76.8,67.572,76.8,67.572Z" transform="translate(-49.108 -52.556)"/><path class="b" d="M66.121,3.169a9.059,9.059,0,0,0-4.546,2.447l1.041.553a7.6,7.6,0,0,0-3.186,4.088,12.882,12.882,0,0,0-.06,7.057,1.266,1.266,0,0,1,.311-.088,1.336,1.336,0,0,1,1.158.392,82.4,82.4,0,0,1,7.192-5.791,5.947,5.947,0,0,0,.618,1.424,20.4,20.4,0,0,0,2.993-1.705c.11.019,1.946.453,1.946.453a7.01,7.01,0,0,1,2.2,1.29,12.585,12.585,0,0,1,3.07,4.3,1.327,1.327,0,0,1,1.125-.363,1.3,1.3,0,0,1,.236.058,9.832,9.832,0,0,0-.078-6.6A7.756,7.756,0,0,0,77,6.782l-1.525-1.1c-1.3-1.781-3.265-2.719-6.037-2.8a13.37,13.37,0,0,0-3.317.287Z" transform="translate(-51.243 -2.497)"/><path class="c" d="M84.126,199.866q.7-.323,1.408-.65a2.512,2.512,0,0,0,.3-.136q-.144.059-.027.014l.136-.057a1.847,1.847,0,0,0,.175-.085,1.669,1.669,0,0,0,.279-.2,1.624,1.624,0,0,0,.472-1.006c.085-.539.177-1.077.221-1.622a.369.369,0,0,0-.365-.365.373.373,0,0,0-.365.365c-.039.48-.12.953-.195,1.427a2.261,2.261,0,0,1-.1.441c.026-.068-.027.053-.034.066a.846.846,0,0,1-.056.087c.037-.05-.038.039-.049.049s-.086.074-.062.056a4.35,4.35,0,0,1-.762.366l-1.338.617a.368.368,0,0,0-.131.5.374.374,0,0,0,.5.131Z" transform="translate(-72.686 -170.208)"/><path class="c" d="M173.533,196.773c.044.5.128.989.2,1.483a1.832,1.832,0,0,0,.376.954,1.451,1.451,0,0,0,.466.351c.066.032.135.061.2.088.018.007.136.056.04.014s.016.008.038.019c.265.122.528.248.792.373l1.158.548a.376.376,0,0,0,.5-.131.369.369,0,0,0-.131-.5c-.676-.32-1.347-.658-2.032-.959a1.36,1.36,0,0,1-.493-.293c-.028-.034-.031-.037-.01-.009q-.02-.028-.038-.058a.936.936,0,0,1-.063-.121c.029.068-.017-.059-.021-.072-.013-.044-.024-.089-.034-.134a12.715,12.715,0,0,1-.223-1.553.375.375,0,0,0-.365-.365.368.368,0,0,0-.365.365Z" transform="translate(-150.901 -170.773)"/><path class="c" d="M170.242,147.592a4.594,4.594,0,0,1-.224,1.182c-.043.143-.09.284-.138.425-.012.035-.023.07-.036.1-.006.015-.013.031-.018.046-.021.061.04-.089.005-.012a9.633,9.633,0,0,1-.613,1.118,10.69,10.69,0,0,1-2.415,2.774,4.6,4.6,0,0,1-1.779.9c-.458.1-.264.809.194.7a6.708,6.708,0,0,0,3.361-2.3,11.646,11.646,0,0,0,1.855-2.762,5.834,5.834,0,0,0,.539-2.177c.014-.47-.717-.47-.731,0Z" transform="translate(-143.275 -128.023)"/><path class="c" d="M73.1,145.778a10.865,10.865,0,0,0,1.352,3.784,8.643,8.643,0,0,0,3.279,3.174,6.253,6.253,0,0,0,2.274.683.368.368,0,0,0,.365-.365.374.374,0,0,0-.365-.365,6,6,0,0,1-3.4-1.651,8.7,8.7,0,0,1-2.317-3.55,12.1,12.1,0,0,1-.481-1.9.369.369,0,0,0-.45-.255.374.374,0,0,0-.255.45Z" transform="translate(-63.566 -126.349)"/><path class="c" d="M207.8,110.934a.979.979,0,0,1,1.115-.09,1.234,1.234,0,0,1,.466,1.139,4.852,4.852,0,0,1-.9,3.021,2.127,2.127,0,0,1-1.351.848.368.368,0,0,0-.255.45.374.374,0,0,0,.449.255,3.572,3.572,0,0,0,2.529-2.71,5.693,5.693,0,0,0,.251-1.98,1.877,1.877,0,0,0-.822-1.655,1.73,1.73,0,0,0-2,.2.369.369,0,0,0,0,.517.373.373,0,0,0,.517,0Z" transform="translate(-179.88 -95.63)"/><path class="c" d="M56.167,110.415A1.723,1.723,0,0,0,54.4,110.1a1.662,1.662,0,0,0-.735.569,1.906,1.906,0,0,0-.3.919,5.516,5.516,0,0,0,.969,3.785,2.852,2.852,0,0,0,1.788,1.185.377.377,0,0,0,.45-.255.368.368,0,0,0-.255-.45,2.76,2.76,0,0,1-1.964-2.034,5.083,5.083,0,0,1-.287-1.605,1.6,1.6,0,0,1,.349-1.289.979.979,0,0,1,1.234.009.375.375,0,0,0,.517,0,.369.369,0,0,0,0-.517Z" transform="translate(-46.389 -95.627)"/><path class="c" d="M194.861,30.733A4.392,4.392,0,0,1,196.2,31.8a8.575,8.575,0,0,1,1.249,1.76,9.235,9.235,0,0,1,.979,4.592,8.379,8.379,0,0,1-.394,2.338c-.146.448.56.64.7.194a9.94,9.94,0,0,0,.243-4.813,8.695,8.695,0,0,0-2.081-4.381A5.331,5.331,0,0,0,195.23,30.1a.376.376,0,0,0-.5.131.369.369,0,0,0,.131.5Z" transform="translate(-169.289 -26.132)"/><path class="c" d="M83.762,65.125c-.782.48-1.557.972-2.35,1.433-.157.091-.313.181-.473.266-.06.032-.12.063-.182.093l-.072.034c-.075.037.077-.022-.008,0-.064.019-.119.013,0,.013a.71.71,0,0,1,.217.09c-.015-.015.052.089.009.007-.066-.127-.132-.252-.19-.383l-.055-.126c.022.052-.031-.074-.038-.091-.036-.089-.071-.178-.105-.267s-.058-.156-.084-.235c-.016-.049-.049-.221-.028-.055a.372.372,0,0,0-.624-.258c-1.765,1.385-3.607,2.668-5.324,4.114q-.827.7-1.617,1.438c-.344.322.174.838.517.517a63.912,63.912,0,0,1,5.44-4.4c.5-.378,1.006-.76,1.5-1.149l-.624-.258a3.85,3.85,0,0,0,.341.985c.11.258.245.714.556.794.286.073.628-.168.865-.3.416-.229.822-.477,1.227-.724.492-.3.98-.6,1.471-.906.4-.245.034-.878-.369-.631Z" transform="translate(-63.249 -56.576)"/><path class="c" d="M168.8,70.721a7.192,7.192,0,0,1,2.4,1.524,11.444,11.444,0,0,1,1.819,2.31A14.059,14.059,0,0,1,173.785,76a.368.368,0,0,0,.5.131.374.374,0,0,0,.131-.5,13.7,13.7,0,0,0-1.561-2.6,9.565,9.565,0,0,0-2.322-2.245,8.374,8.374,0,0,0-1.541-.761.368.368,0,0,0-.45.255.374.374,0,0,0,.255.45Z" transform="translate(-146.552 -60.866)"/><path class="c" d="M60.6,23.545a6.917,6.917,0,0,0-3.549,3.583,10.459,10.459,0,0,0-.937,4.781,16.328,16.328,0,0,0,.461,3.444c.109.457.814.264.7-.194-.755-3.165-.7-6.785,1.506-9.383A5.068,5.068,0,0,1,60.8,24.25a.376.376,0,0,0,.255-.45.368.368,0,0,0-.45-.255Z" transform="translate(-48.808 -20.461)"/><path class="c" d="M91.07,3a6.874,6.874,0,0,0-2.1-1.91,8.024,8.024,0,0,0-2.852-.95,12.621,12.621,0,0,0-6.293.623A9.335,9.335,0,0,0,76.6,2.86a.366.366,0,0,0,.517.517A9.2,9.2,0,0,1,82.574.838a10.247,10.247,0,0,1,5.688.7A6.055,6.055,0,0,1,90.44,3.373a.376.376,0,0,0,.5.131.368.368,0,0,0,.131-.5Z" transform="translate(-66.524 0)"/><path class="c" d="M11.6,219.745a34.371,34.371,0,0,0-3.185,1.4,28.515,28.515,0,0,0-3.106,1.669,16.441,16.441,0,0,0-1.869,1.342,8.8,8.8,0,0,0-1.9,2.357c-.2.348-.384.7-.579,1.055-.352.633-.624,1.307-.938,1.959a.375.375,0,0,0,.131.5.369.369,0,0,0,.5-.131c.27-.562.509-1.139.8-1.693.176-.341.365-.676.55-1.013a8.811,8.811,0,0,1,1.783-2.368c.1-.09.2-.177.307-.262l.165-.132.047-.037h0l.1-.078c.32-.24.649-.467.983-.685a25.593,25.593,0,0,1,2.918-1.629,35.042,35.042,0,0,1,3.484-1.545.375.375,0,0,0,.255-.45.369.369,0,0,0-.45-.255Z" transform="translate(0 -191.053)"/><path class="c" d="M191.345,220.443a33.334,33.334,0,0,1,3.056,1.344,28,28,0,0,1,3.04,1.634c.363.228.72.466,1.067.717l.209.154.091.069.05.038c-.059-.045,0,0,.01.008.109.086.217.172.323.262a8.253,8.253,0,0,1,1.793,2.237c.2.354.392.715.588,1.072.338.618.6,1.272.909,1.906a.369.369,0,0,0,.5.131.373.373,0,0,0,.131-.5c-.886-1.841-1.706-3.848-3.264-5.241A14.189,14.189,0,0,0,198.133,223a25.6,25.6,0,0,0-2.994-1.669,36.994,36.994,0,0,0-3.6-1.592.369.369,0,0,0-.449.255.373.373,0,0,0,.255.45Z" transform="translate(-166.155 -191.047)"/><path class="c" d="M76.186,224.87a14.8,14.8,0,0,0,6.435,2.453,14.992,14.992,0,0,0,6.907-.7A14.538,14.538,0,0,0,93,224.867a.375.375,0,0,0,.131-.5.369.369,0,0,0-.5-.131,14.179,14.179,0,0,1-6.156,2.367,14.358,14.358,0,0,1-6.592-.677,13.815,13.815,0,0,1-3.325-1.687.369.369,0,0,0-.5.131.373.373,0,0,0,.131.5Z" transform="translate(-66.104 -194.927)"/><path class="c" d="M129.046,165.788a3.53,3.53,0,0,0,1.7.392,2.746,2.746,0,0,0,1.7-.494.367.367,0,0,0,0-.517.375.375,0,0,0-.517,0c.105-.082,0-.006-.022.011s-.071.043-.108.063c-.021.011-.141.064-.061.032-.049.02-.1.038-.149.054a2.739,2.739,0,0,1-.9.12,2.861,2.861,0,0,1-.858-.115c-.054-.016-.108-.036-.161-.054l-.052-.02c.089.033.01,0-.007,0-.067-.031-.133-.064-.2-.1a.373.373,0,0,0-.5.131.369.369,0,0,0,.131.5Z" transform="translate(-112.064 -143.522)"/><path class="c" d="M140.165,136.419a8.186,8.186,0,0,1,.193.882l-.013-.1a.535.535,0,0,1,0,.122l.013-.1a.292.292,0,0,1-.013.055l.037-.087a.239.239,0,0,1-.019.035l.057-.074a.185.185,0,0,1-.029.028l.074-.057a.567.567,0,0,1-.07.037l.087-.037a.516.516,0,0,1-.117.034l.1-.013a.473.473,0,0,1-.111,0l.1.013c-.042-.006-.083-.016-.124-.022a.4.4,0,0,0-.282.037.365.365,0,0,0-.13.5.349.349,0,0,0,.218.168c.087.012.172.034.26.038a.815.815,0,0,0,.374-.087.521.521,0,0,0,.294-.345.9.9,0,0,0,0-.382c-.048-.284-.114-.566-.187-.844a.366.366,0,0,0-.7.194Z" transform="translate(-121.628 -118.211)"/><path class="c" d="M105.416,115.745c-.147.479-.051,1.579.856,1.673,1.2-.007,1.262-1.338.859-1.964A.949.949,0,0,0,105.416,115.745Z" transform="translate(-91.625 -100.013)"/><path class="c" d="M166.418,115.745c.147.479.051,1.579-.856,1.673-1.2-.007-1.262-1.338-.859-1.964A.949.949,0,0,1,166.418,115.745Z" transform="translate(-143.03 -100.013)"/></g></svg>