<svg xmlns="http://www.w3.org/2000/svg" width="12.86" height="13" viewBox="0 0 12.86 13"><defs><style>.a{fill:#405b70;}</style></defs><g transform="translate(-0.904 -0.443)"><path class="a" d="M13.09.764l.353.353a1.378,1.378,0,0,1-.166,1.927L6,10.317l-2.356.862A.46.46,0,0,1,3,10.865a.555.555,0,0,1,.027-.3L3.91,8.183,11.163.93A1.378,1.378,0,0,1,13.09.765Zm-7.4.723a.6.6,0,1,1,0,1.2H3.3a1.2,1.2,0,0,0-1.2,1.2v7.173a1.2,1.2,0,0,0,1.2,1.2h7.173a1.2,1.2,0,0,0,1.2-1.2V8.661a.6.6,0,1,1,1.2,0v2.391a2.391,2.391,0,0,1-2.391,2.391H3.3A2.391,2.391,0,0,1,.9,11.052V3.879A2.391,2.391,0,0,1,3.3,1.487H5.686Z" transform="translate(0 0)"/></g></svg>