<svg xmlns="http://www.w3.org/2000/svg" width="12.999" height="13" viewBox="0 0 12.999 13"><defs><style>.a{fill:#405b70;}</style></defs><g transform="translate(0 0.007)"><path class="a" d="M3.718,9.393l1.145-.33,6.892-6.974a.3.3,0,0,0,0-.416l-.413-.417a.288.288,0,0,0-.411,0L4.055,8.21,3.717,9.393ZM12.156.429l.413.418a1.482,1.482,0,0,1,.01,2.077l-7.1,7.187-2.446.7a.586.586,0,0,1-.721-.4.6.6,0,0,1,0-.329l.712-2.5L10.1.418a1.44,1.44,0,0,1,2.053.01Zm-7.487.749a.591.591,0,0,1,0,1.182H2.335A1.174,1.174,0,0,0,1.167,3.541V10.63a1.175,1.175,0,0,0,1.167,1.182h7a1.175,1.175,0,0,0,1.168-1.182V8.267a.584.584,0,1,1,1.167,0V10.63a2.35,2.35,0,0,1-2.335,2.363h-7A2.349,2.349,0,0,1,0,10.63V3.541A2.349,2.349,0,0,1,2.335,1.178Z"/></g></svg>