<svg xmlns="http://www.w3.org/2000/svg" width="13.804" height="13.831" viewBox="0 0 13.804 13.831"><defs><style>.a{fill:none;stroke:#405b70;}</style></defs><g transform="translate(-8 -7.973)"><path class="a" d="M21.3,12.7v8.064a.545.545,0,0,1-.545.545H9.045a.545.545,0,0,1-.545-.545V9.045A.545.545,0,0,1,9.045,8.5h8.483"/><path class="a" d="M19.01,16.828l-.174,1.523a.229.229,0,0,0,.251.253l1.515-.174a.237.237,0,0,0,.136-.065l7.922-7.952a.452.452,0,0,0,0-.64L27.638,8.745a.455.455,0,0,0-.643,0l-7.922,7.949A.226.226,0,0,0,19.01,16.828Z" transform="translate(-7.519 -0.081)"/><line class="a" x2="1.643" y2="1.689" transform="translate(18.408 9.737)"/></g></svg>