<svg xmlns="http://www.w3.org/2000/svg" width="24.213" height="24.213" viewBox="0 0 24.213 24.213"><defs><style>.a{fill:#f1468e;opacity:0.4;}.b{fill:#381e5f;}</style></defs><g transform="translate(-2 -2)"><path class="a" d="M14.106,26.213A12.106,12.106,0,1,0,2,14.106,12.107,12.107,0,0,0,14.106,26.213Z"/><path class="b" d="M14.036,12.754l2.784-2.784a.907.907,0,1,0-1.283-1.283L12.753,11.47,9.968,8.686A.907.907,0,1,0,8.685,9.969l2.785,2.784L8.685,15.538a.913.913,0,0,0,0,1.283.906.906,0,0,0,1.283,0l2.785-2.784,2.784,2.784a.906.906,0,0,0,1.283,0,.913.913,0,0,0,0-1.283Z" transform="translate(1.353 1.353)"/></g></svg>