<svg xmlns="http://www.w3.org/2000/svg" width="19.994" height="20" viewBox="0 0 19.994 20"><defs><style>.a,.b{fill:#f1468e;}.a{opacity:0.4;}</style></defs><g transform="translate(-2 -1.615)"><path class="a" d="M15.207,3h-7.8C4.028,3,2,5.018,2,8.408V16.2c0,3.4,2.028,5.418,5.408,5.418H15.2c3.39,0,5.408-2.018,5.408-5.408v-7.8C20.615,5.018,18.587,3,15.207,3Z"/><path class="b" d="M21.02,2.98c-1.79-1.8-3.54-1.84-5.38,0L14.509,4.1a.365.365,0,0,0-.09.37,7.5,7.5,0,0,0,5.11,5.11.41.41,0,0,0,.11.01.386.386,0,0,0,.27-.11l1.11-1.12a3.843,3.843,0,0,0,1.36-2.67A3.922,3.922,0,0,0,21.02,2.98Z" transform="translate(-0.385)"/><path class="b" d="M17.5,10.256a7.735,7.735,0,0,1-.745-.4c-.194-.116-.387-.242-.571-.377a5.051,5.051,0,0,1-.5-.387,1,1,0,0,1-.155-.135,6.971,6.971,0,0,1-.919-.929.741.741,0,0,1-.126-.165,3.614,3.614,0,0,1-.368-.494,4.632,4.632,0,0,1-.348-.532,7.631,7.631,0,0,1-.387-.736c-.126-.271-.223-.523-.31-.765L7.86,10.547A2.971,2.971,0,0,0,7.125,12l-.416,2.884a1.812,1.812,0,0,0,.455,1.558,1.716,1.716,0,0,0,1.239.484c.106,0,.213-.01.319-.019L11.6,16.5a2.891,2.891,0,0,0,1.452-.736l5.207-5.207C18.012,10.479,17.77,10.372,17.5,10.256Z"/></g></svg>