<svg xmlns="http://www.w3.org/2000/svg" width="22.136" height="22" viewBox="0 0 22.136 22"><defs><style>.a{fill:#f1468e;}</style></defs><path class="a" d="M23.14,12.163A11.068,11.068,0,1,0,10.278,23.088l.063.009V15.364H7.531v-3.2h2.811V9.726a3.734,3.734,0,0,1-.021-.411,3.907,3.907,0,0,1,3.907-3.907c.1,0,.207,0,.31.012h-.013a17.07,17.07,0,0,1,2.577.23L17,5.636V8.359H15.6a1.555,1.555,0,0,0-.21-.014,1.6,1.6,0,0,0-1.6,1.6c0,.05,0,.1.007.149v2.069h3.07l-.491,3.2H13.8V23.1A11.088,11.088,0,0,0,23.14,12.163h0Z" transform="translate(-1.004 -1.097)"/></svg>