<svg xmlns="http://www.w3.org/2000/svg" width="22.556" height="22" viewBox="0 0 22.556 22"><defs><style>.a{fill:#f1468e;fill-rule:evenodd;}</style></defs><path class="a" d="M11.278,0A11.279,11.279,0,0,0,7.711,21.978c.564.1.775-.24.775-.536,0-.268-.014-1.156-.014-2.1-2.834.522-3.567-.691-3.792-1.325a4.1,4.1,0,0,0-1.156-1.593c-.395-.211-.959-.733-.014-.747a2.257,2.257,0,0,1,1.734,1.156,2.411,2.411,0,0,0,3.285.93,2.372,2.372,0,0,1,.719-1.508C6.739,15.973,4.117,15,4.117,10.686A4.389,4.389,0,0,1,5.273,7.655a4.053,4.053,0,0,1,.113-2.989s.945-.3,3.1,1.156a10.633,10.633,0,0,1,5.639,0c2.157-1.466,3.1-1.156,3.1-1.156a4.053,4.053,0,0,1,.113,2.989A4.364,4.364,0,0,1,18.5,10.686c0,4.328-2.636,5.287-5.146,5.569a2.671,2.671,0,0,1,.761,2.086c0,1.508-.014,2.721-.014,3.1,0,.3.211.648.775.536A11.284,11.284,0,0,0,11.278,0Z"/></svg>