<svg xmlns="http://www.w3.org/2000/svg" width="79.865" height="80.349" viewBox="0 0 79.865 80.349"><defs><style>.a{fill:#ffc9a9;}.a,.b,.c{stroke:#405b70;}.b{fill:#f1468e;}.c{fill:#fa9e58;}.d{fill:#093959;stroke:#093959;}</style></defs><g transform="translate(-1.059 0.5)"><path class="a" d="M86.744,13.453v43.03a4.3,4.3,0,0,1-4.3,4.3H15.017a4.3,4.3,0,0,1-4.3-4.3V13.453a4.3,4.3,0,0,1,4.3-4.3H82.443A4.3,4.3,0,0,1,86.744,13.453Z" transform="translate(-7.738 -7.734)"/><g transform="translate(2.978 1.418)"><path class="b" d="M86.745,13.453v4.588H10.717V13.453a4.3,4.3,0,0,1,4.3-4.3H82.444A4.3,4.3,0,0,1,86.745,13.453Z" transform="translate(-10.717 -9.152)"/><path class="b" d="M144.92,374l-6.563,14.951,7.31-1.127,4.119,6.145,6.1-13.892h1.409l6.1,13.892,4.119-6.145,7.31,1.127L168.257,374" transform="translate(-118.576 -317.456)"/></g><path class="c" d="M194.191,231.727c0-2.582,1.38-5.558.174-7.643-1.244-2.151-4.554-2.428-6.705-3.673-2.085-1.206-3.95-3.967-6.532-3.967s-4.447,2.761-6.532,3.967c-2.151,1.244-5.461,1.522-6.705,3.673-1.206,2.085.174,5.061.174,7.643s-1.38,5.558-.174,7.643c1.244,2.151,4.554,2.428,6.705,3.673,2.085,1.206,3.95,3.967,6.532,3.967s4.447-2.761,6.532-3.967c2.151-1.244,5.461-1.522,6.705-3.673C195.571,237.285,194.191,234.309,194.191,231.727Z" transform="translate(-140.136 -182.901)"/><circle class="b" cx="7.204" cy="7.204" r="7.204" transform="translate(33.788 41.623)"/><path class="d" d="M24.05,204.124a1.419,1.419,0,0,0-1.419-1.419H7.281A2.886,2.886,0,0,1,4.4,199.823V180.2a1.419,1.419,0,0,0-2.837,0v19.623a5.726,5.726,0,0,0,5.719,5.719h15.35A1.419,1.419,0,0,0,24.05,204.124Z" transform="translate(-0.003 -151.074)"/><path class="d" d="M74.705,0H7.279A5.726,5.726,0,0,0,1.56,5.719V10.3s0,.007,0,.011,0,.007,0,.011V24.4a1.419,1.419,0,1,0,2.837,0V11.726h50.04a1.419,1.419,0,1,0,0-2.837H4.4V5.719A2.886,2.886,0,0,1,7.279,2.837H74.705a2.886,2.886,0,0,1,2.882,2.882v3.17H59.165a1.419,1.419,0,1,0,0,2.837H77.587V48.749a2.886,2.886,0,0,1-2.882,2.882H59.353a1.419,1.419,0,0,0,0,2.837H74.705a5.726,5.726,0,0,0,5.719-5.719V5.719A5.726,5.726,0,0,0,74.705,0Z"/><path class="d" d="M35.708,31.558a1.419,1.419,0,1,0,1.8-.168A1.43,1.43,0,0,0,35.708,31.558Z" transform="translate(-28.516 -26.319)"/><path class="d" d="M93.96,31.242a1.416,1.416,0,1,0,.858,1.543A1.428,1.428,0,0,0,93.96,31.242Z" transform="translate(-76.428 -26.31)"/><path class="d" d="M63.837,31.156A1.418,1.418,0,1,0,65.425,32,1.432,1.432,0,0,0,63.837,31.156Z" transform="translate(-51.663 -26.305)"/><path class="d" d="M162.279,233.6a5.049,5.049,0,0,0,1.039-1.257c1.043-1.8.666-3.925.333-5.8a10.506,10.506,0,0,1,0-5.112c.333-1.872.71-3.995-.333-5.8-1.075-1.858-3.129-2.59-4.942-3.236a14.363,14.363,0,0,1-2.281-.954A13.458,13.458,0,0,1,154.222,210c-1.471-1.27-3.138-2.709-5.369-2.709s-3.9,1.439-5.369,2.709a13.459,13.459,0,0,1-1.873,1.448,14.379,14.379,0,0,1-2.281.954c-1.812.646-3.867,1.379-4.942,3.236-1.043,1.8-.666,3.925-.333,5.8a10.5,10.5,0,0,1,0,5.112c-.333,1.872-.71,3.995.333,5.8a5.042,5.042,0,0,0,1.038,1.256l-6.1,13.907a1.419,1.419,0,0,0,1.515,1.972l6.418-.99,3.617,5.4a1.419,1.419,0,0,0,1.178.629c.042,0,.084,0,.126-.005a1.418,1.418,0,0,0,1.173-.843l5.5-12.538,5.5,12.538a1.419,1.419,0,0,0,1.174.843c.042,0,.084.005.126.005a1.418,1.418,0,0,0,1.178-.629l3.617-5.4,6.418.99a1.419,1.419,0,0,0,1.515-1.972ZM136.85,220.94c-.272-1.529-.529-2.974,0-3.88.553-.956,1.955-1.456,3.439-1.985a16.6,16.6,0,0,0,2.749-1.17,15.66,15.66,0,0,0,2.306-1.756c1.2-1.039,2.34-2.02,3.515-2.02s2.312.981,3.515,2.02a15.692,15.692,0,0,0,2.306,1.756,16.593,16.593,0,0,0,2.749,1.17c1.484.529,2.886,1.029,3.439,1.985.524.906.267,2.351,0,3.88a13.138,13.138,0,0,0,0,6.105c.272,1.529.529,2.974,0,3.88-.553.956-1.955,1.456-3.439,1.985a16.591,16.591,0,0,0-2.749,1.17,15.663,15.663,0,0,0-2.306,1.756c-1.2,1.039-2.34,2.02-3.515,2.02s-2.312-.981-3.515-2.02a15.67,15.67,0,0,0-2.306-1.756,16.594,16.594,0,0,0-2.749-1.17c-1.484-.529-2.886-1.029-3.439-1.985-.524-.906-.267-2.35,0-3.88a13.142,13.142,0,0,0,0-6.105Zm4.941,29.221-2.681-4a1.418,1.418,0,0,0-1.394-.612l-4.756.734,4.934-11.24c.481.2.968.371,1.438.539a14.364,14.364,0,0,1,2.281.954,13.464,13.464,0,0,1,1.873,1.448,14.916,14.916,0,0,0,2.76,2.03Zm18.2-4.611a1.419,1.419,0,0,0-1.394.612l-2.681,4-4.454-10.146a14.907,14.907,0,0,0,2.76-2.031,13.462,13.462,0,0,1,1.873-1.448,14.379,14.379,0,0,1,2.281-.954c.47-.168.956-.342,1.437-.539l4.934,11.24Z" transform="translate(-107.862 -175.166)"/><path class="d" d="M208.981,276.659a8.623,8.623,0,1,0-8.623-8.623A8.633,8.633,0,0,0,208.981,276.659Zm0-14.409a5.786,5.786,0,1,1-5.786,5.786A5.793,5.793,0,0,1,208.981,262.25Z" transform="translate(-167.989 -219.21)"/><path class="d" d="M54.233,147.816H79.954a1.419,1.419,0,1,0,0-2.837H54.233a1.419,1.419,0,1,0,0,2.837Z" transform="translate(-43.312 -122.51)"/><path class="d" d="M54.233,194.558H75.225a1.419,1.419,0,1,0,0-2.837H54.233a1.419,1.419,0,1,0,0,2.837Z" transform="translate(-43.312 -162.008)"/><path class="d" d="M54.233,241.3H67.111a1.419,1.419,0,1,0,0-2.837H54.233a1.419,1.419,0,0,0,0,2.837Z" transform="translate(-43.312 -201.505)"/><path class="d" d="M54.233,288.041H66.6a1.419,1.419,0,0,0,0-2.837H54.233a1.419,1.419,0,0,0,0,2.837Z" transform="translate(-43.312 -241.003)"/><path class="d" d="M205.731,98.238H162.345a1.419,1.419,0,1,0,0,2.837h43.386a1.419,1.419,0,1,0,0-2.837Z" transform="translate(-134.669 -83.013)"/><path class="d" d="M54.233,101.075H66.259a1.419,1.419,0,1,0,0-2.837H54.233a1.419,1.419,0,1,0,0,2.837Z" transform="translate(-43.312 -83.013)"/><path class="d" d="M302.05,144.979H276.328a1.419,1.419,0,1,0,0,2.837H302.05a1.419,1.419,0,0,0,0-2.837Z" transform="translate(-230.987 -122.51)"/><path class="d" d="M417.643,191.721h-4.521a1.419,1.419,0,1,0,0,2.837h4.521a1.419,1.419,0,1,0,0-2.837Z" transform="translate(-346.58 -162.008)"/><path class="d" d="M320,193.139a1.419,1.419,0,0,0-1.419-1.419H306.839a1.419,1.419,0,0,0,0,2.837h11.743A1.419,1.419,0,0,0,320,193.139Z" transform="translate(-256.769 -162.008)"/><path class="d" d="M372.076,238.462H359.2a1.419,1.419,0,0,0,0,2.837h12.878a1.419,1.419,0,1,0,0-2.837Z" transform="translate(-301.014 -201.505)"/><path class="d" d="M374.846,285.2h-12.37a1.419,1.419,0,0,0,0,2.837h12.37a1.419,1.419,0,0,0,0-2.837Z" transform="translate(-303.784 -241.003)"/></g></svg>