<svg xmlns="http://www.w3.org/2000/svg" width="16.844" height="17" viewBox="0 0 16.844 17"><defs><style>.a{fill:#405b70;}</style></defs><g transform="translate(-83.438 -80.5)"><path class="a" d="M177.452,188.286c.161-1.074.942-3.742.1-4.576-.526-.535-1.025-1.1-1.523-1.662a4.187,4.187,0,0,1-.7-1.029c-.253-.778.754-.8,1.265-.909.7-.218,3.053-.377,3.331-.865.5-.837.989-1.682,1.481-2.525a.586.586,0,0,1,1.051-.05c.453.878.965,1.721,1.484,2.561a.779.779,0,0,0,.693.4c1.26.082,2.537.087,3.787.27,1.111.383-.1,1.313-.511,1.768-.6.631-1.217,1.254-1.815,1.891-.43.458-.414.464-.305,1.083.193,1.2.452,2.4.6,3.606-.02.556-.427.806-.913.547-1.168-.613-2.3-1.3-3.5-1.841a.374.374,0,0,0-.388.042q-1.369.841-2.746,1.668C178.313,189.031,177.437,189.269,177.452,188.286Z" transform="translate(-90.077 -94.015)"/><path class="a" d="M635.523,83.469c.191-.574,1.315-2.841,1.858-2.956a.484.484,0,0,1,.511.713c-.479.714-.912,1.462-1.367,2.192a2.9,2.9,0,0,1-.244.365A.435.435,0,0,1,635.523,83.469Z" transform="translate(-539.87)"/><path class="a" d="M219.281,100.426a.514.514,0,0,1,.809-.412c.611.658,1.069,1.461,1.619,2.174a.453.453,0,0,1-.552.706,22.539,22.539,0,0,1-1.677-2.071A2.326,2.326,0,0,1,219.281,100.426Z" transform="translate(-132.9 -19.039)"/><path class="a" d="M439.93,716.8c.043-.58.082-1.161.132-1.741a.539.539,0,0,1,.645-.512.476.476,0,0,1,.356.467c-.015.685-.033,1.37-.061,2.054a.538.538,0,0,1-1.054.214,3.406,3.406,0,0,1,0-.482Z" transform="translate(-348.852 -620.219)"/><path class="a" d="M83.938,556.662a.506.506,0,0,1-.428-.76,5.338,5.338,0,0,1,1.286-.909c.36-.147,1.014-.605,1.357-.293a.461.461,0,0,1-.137.774q-.562.3-1.111.626A4.069,4.069,0,0,1,83.938,556.662Z" transform="translate(0 -463.863)"/><path class="a" d="M730.312,513.161c-.577-.134-1.226-.356-1.8-.532a.477.477,0,0,1,.016-.949,14.768,14.768,0,0,1,2.1.519A.51.51,0,0,1,730.312,513.161Z" transform="translate(-630.645 -421.916)"/></g></svg>