<svg xmlns="http://www.w3.org/2000/svg" width="95.815" height="19.079" viewBox="0 0 95.815 19.079"><defs><style>.a{fill:#fffe03;}</style></defs><g transform="translate(0 -196.215)"><path class="a" d="M11.819,203.5l-2.258-7.287L7.3,203.5H0l5.909,4.5-2.257,7.288,5.909-4.505,5.909,4.505-2.257-7.288,5.909-4.5Z"/><path class="a" d="M109.871,203.5l-2.257-7.287-2.258,7.287h-7.3l5.909,4.5-2.257,7.288,5.909-4.505,5.909,4.505-2.258-7.288,5.909-4.5Z" transform="translate(-78.879)"/><path class="a" d="M207.923,203.5l-2.257-7.287-2.257,7.287h-7.3l5.909,4.5-2.257,7.288,5.909-4.505,5.909,4.505-2.257-7.288,5.909-4.5Z" transform="translate(-157.758)"/><path class="a" d="M305.975,203.5l-2.257-7.287-2.257,7.287h-7.3l5.909,4.5-2.258,7.288,5.909-4.505,5.909,4.505-2.257-7.288,5.909-4.5Z" transform="translate(-236.637)"/><path class="a" d="M401.77,196.215l-2.258,7.287h-7.3l5.909,4.5-2.257,7.288,5.909-4.505,5.909,4.505-2.257-7.288,5.909-4.5h-7.3Z" transform="translate(-315.516)"/></g></svg>