<svg xmlns="http://www.w3.org/2000/svg" width="17" height="17.014" viewBox="0 0 17 17.014"><defs><style>.a,.b{fill:none;stroke:#405b70;stroke-linecap:round;stroke-linejoin:round;}.b{opacity:0.4;}</style></defs><g transform="translate(-1.5 -1.5)"><path class="a" d="M10.712,5.88H4.488A2.5,2.5,0,0,0,2,8.368v9.088c0,1.16.832,1.656,1.848,1.088l3.144-1.752a1.391,1.391,0,0,1,1.208,0l3.144,1.752c1.016.568,1.848.072,1.848-1.088V8.368A2.484,2.484,0,0,0,10.712,5.88Z" transform="translate(0 -0.776)"/><path class="a" d="M13.2,8.368v9.088c0,1.16-.832,1.648-1.848,1.088L8.208,16.792a1.408,1.408,0,0,0-1.216,0L3.848,18.544C2.832,19.1,2,18.616,2,17.456V8.368A2.5,2.5,0,0,1,4.488,5.88h6.224A2.5,2.5,0,0,1,13.2,8.368Z" transform="translate(0 -0.776)"/><path class="b" d="M19.2,4.488v9.088c0,1.16-.832,1.648-1.848,1.088L14.4,13.016V7.592A2.5,2.5,0,0,0,11.912,5.1H8V4.488A2.5,2.5,0,0,1,10.488,2h6.224A2.5,2.5,0,0,1,19.2,4.488Z" transform="translate(-1.2)"/></g></svg>