<svg xmlns="http://www.w3.org/2000/svg" width="14.601" height="17.001" viewBox="0 0 14.601 17.001"><defs><style>.a{fill:none;stroke:#405b70;stroke-linecap:round;stroke-linejoin:round;}</style></defs><g transform="translate(-3 -1.5)"><path class="a" d="M3.5,16.137V6.418C3.5,2.884,4.3,2,7.5,2h5.6c3.2,0,4,.884,4,4.418v8.836c0,.124,0,.247-.008.371" transform="translate(0)"/><path class="a" d="M5.78,15H17.1v1.631c0,.9-1.256,1.631-2.8,1.631h-8c-1.544,0-2.8-.732-2.8-1.631v-.3C3.5,15.6,4.524,15,5.78,15Z" transform="translate(0 -0.261)"/><path class="a" d="M8,7h3.728" transform="translate(0.436 -1)"/><path class="a" d="M8,10.5h2.33" transform="translate(-0.274 -1.7)"/></g></svg>