<svg xmlns="http://www.w3.org/2000/svg" width="24.607" height="20" viewBox="0 0 24.607 20"><defs><style>.a{fill:#405b70;}</style></defs><path class="a" d="M-246.394,298.961a10.132,10.132,0,0,1-2.9.8,5.022,5.022,0,0,0,2.217-2.793,10.289,10.289,0,0,1-3.205,1.228,5.056,5.056,0,0,0-3.685-1.593,5.054,5.054,0,0,0-5.048,5.048,4.611,4.611,0,0,0,.134,1.152,14.3,14.3,0,0,1-10.4-5.278,5.062,5.062,0,0,0-.681,2.543,5.067,5.067,0,0,0,2.246,4.2,5.111,5.111,0,0,1-2.284-.633v.058a5.047,5.047,0,0,0,4.05,4.952,5.086,5.086,0,0,1-1.334.182,5.148,5.148,0,0,1-.95-.086,5.045,5.045,0,0,0,4.712,3.5,10.133,10.133,0,0,1-6.267,2.159,10.215,10.215,0,0,1-1.209-.067,14.3,14.3,0,0,0,7.735,2.265A14.269,14.269,0,0,0-248.9,302.233c0-.221,0-.441-.01-.653a10.2,10.2,0,0,0,2.514-2.62" transform="translate(271 -296.6)"/></svg>